<?xml version="1.0" encoding="UTF-8"?>
<svg id="uuid-ece232b4-f1d4-4523-8f05-9abd887d0d39" data-name="레이어 2" xmlns="http://www.w3.org/2000/svg" viewBox="0 0 500 795.89">
  <defs>
    <style>
      .uuid-8b61b243-3e6e-4aa0-b0bf-af1fb59f4971 {
        fill: #abffff;
      }

      .uuid-8b61b243-3e6e-4aa0-b0bf-af1fb59f4971, .uuid-cdf1cba1-b9b9-4a70-8a9c-0b48ead95b9e, .uuid-7c6edc57-ba9c-4148-804c-75c296d32b0c {
        stroke-width: 16px;
      }

      .uuid-8b61b243-3e6e-4aa0-b0bf-af1fb59f4971, .uuid-cdf1cba1-b9b9-4a70-8a9c-0b48ead95b9e, .uuid-7c6edc57-ba9c-4148-804c-75c296d32b0c, .uuid-98988fbb-1e45-49f1-9db4-f2531aece75b {
        stroke: #000;
      }

      .uuid-8b61b243-3e6e-4aa0-b0bf-af1fb59f4971, .uuid-7c6edc57-ba9c-4148-804c-75c296d32b0c {
        stroke-linecap: round;
        stroke-linejoin: round;
      }

      .uuid-cdf1cba1-b9b9-4a70-8a9c-0b48ead95b9e, .uuid-98988fbb-1e45-49f1-9db4-f2531aece75b {
        stroke-miterlimit: 10;
      }

      .uuid-cdf1cba1-b9b9-4a70-8a9c-0b48ead95b9e, .uuid-3772e78f-3fab-4e4c-9437-f1cb0392978b {
        fill: #ffd5b3;
      }

      .uuid-7c6edc57-ba9c-4148-804c-75c296d32b0c, .uuid-98988fbb-1e45-49f1-9db4-f2531aece75b {
        fill: none;
      }

      .uuid-98988fbb-1e45-49f1-9db4-f2531aece75b {
        stroke-width: 8px;
      }

      .uuid-aa948894-2163-4828-807a-537b118061da {
        fill: #f8ffe9;
      }

      .uuid-aa948894-2163-4828-807a-537b118061da, .uuid-3772e78f-3fab-4e4c-9437-f1cb0392978b {
        stroke-width: 0px;
      }
    </style>
  </defs>
  <path class="uuid-cdf1cba1-b9b9-4a70-8a9c-0b48ead95b9e" d="M22.7,563.74l-2.45,25.13c-1.22,12.53,3.04,24.98,11.68,34.14l56.48,59.88c4.61,4.89,11.54,6.86,18.03,5.12h0c4.33-1.16,8.09-3.88,10.55-7.63l7.91-12.05"/>
  <path class="uuid-3772e78f-3fab-4e4c-9437-f1cb0392978b" d="M228.79,524.19c-4.5-15.64-13.8-29.46-26.59-39.52h0c-18.72-14.71-43.97-18.05-65.86-8.7h0c-11.52,4.92-19.61,15.52-21.32,27.93l-.4,2.92c-2.12,15.44,5.45,30.59,19.06,38.17l14.31,7.96c6.2,3.45,12.87,5.99,19.8,7.54l33.32,7.45c8.61,1.92,15.67,8.05,18.79,16.31h0c4.45,11.77-.09,25.03-10.82,31.61h0c-6.5,3.98-14.16,5.63-21.72,4.68l-90.56-11.42c-17.45-2.2-31.83-14.74-36.38-31.73l-22.06-82.32c-4.8-17.9-.9-37.01,10.51-51.61l41.13-52.61c3.87-4.95,7.38-10.16,10.51-15.59,7.76-13.44,11.72-28.74,11.72-44.26v-51.06h189.95v118.17c0,11.11-1.07,22.2-3.18,33.11l-3.53,18.19c-3.62,18.66-2.34,37.93,3.72,55.95l-70.4,18.83Z"/>
  <rect class="uuid-aa948894-2163-4828-807a-537b118061da" x="98.1" y="147.61" width="218.21" height="132.32"/>
  <rect class="uuid-aa948894-2163-4828-807a-537b118061da" x="112.24" y="8.11" width="189.95" height="139.5"/>
  <path class="uuid-98988fbb-1e45-49f1-9db4-f2531aece75b" d="M112.24,330.99v-51.06h189.95v118.17c0,11.11-1.07,22.2-3.18,33.11l-3.53,18.19c-3.62,18.66-2.34,37.93,3.72,55.95l7,24.96c3.29,9.79,3.15,20.41-.4,30.1h0c-6.77,18.47-27.05,28.15-45.66,21.8h0c-10.45-3.56-18.5-12.01-21.55-22.62l-9.78-35.41c-4.5-15.64-13.8-29.46-26.59-39.52h0c-18.72-14.71-43.97-18.05-65.86-8.7h0c-11.52,4.92-19.61,15.52-21.32,27.93l-.4,2.92c-2.12,15.44,5.45,30.59,19.06,38.17l14.31,7.96c6.2,3.45,12.87,5.99,19.8,7.54l33.32,7.45c8.61,1.92,15.67,8.05,18.79,16.31h0c4.45,11.77-.09,25.03-10.82,31.61h0c-6.5,3.98-14.16,5.63-21.72,4.68l-90.56-11.42c-17.45-2.2-31.83-14.74-36.38-31.73l-22.06-82.32c-4.8-17.9-.9-37.01,10.51-51.61l41.13-52.61c3.87-4.95,7.38-10.16,10.51-15.59,7.76-13.44,11.72-28.74,11.72-44.26Z"/>
  <path class="uuid-cdf1cba1-b9b9-4a70-8a9c-0b48ead95b9e" d="M36.54,484.42l-21.36,32.97c-8.8,13.59-7.02,31.47,4.3,43.05l106.44,108.93c4.59,4.7,11.09,7.03,17.62,6.33h0c8.84-.95,16.19-7.26,18.45-15.86h0c1.71-6.49,1.45-13.35-.75-19.69l-8.3-23.97"/>
  <rect class="uuid-7c6edc57-ba9c-4148-804c-75c296d32b0c" x="98.1" y="147.61" width="218.21" height="132.32"/>
  <polyline class="uuid-7c6edc57-ba9c-4148-804c-75c296d32b0c" points="112.24 8.11 112.24 147.61 302.18 147.61 302.18 8.11"/>
  <circle class="uuid-8b61b243-3e6e-4aa0-b0bf-af1fb59f4971" cx="249.08" cy="228.64" r="16.74"/>
  <path class="uuid-7c6edc57-ba9c-4148-804c-75c296d32b0c" d="M228.79,524.19c-4.5-15.64-13.8-29.46-26.59-39.52h0c-18.72-14.71-43.97-18.05-65.86-8.7h0c-11.52,4.92-19.61,15.52-21.32,27.93l-.4,2.92c-2.12,15.44,5.45,30.59,19.06,38.17l14.31,7.96c6.2,3.45,12.87,5.99,19.8,7.54l33.32,7.45c8.61,1.92,15.67,8.05,18.79,16.31h0c4.45,11.77-.09,25.03-10.82,31.61h0c-6.5,3.98-14.16,5.63-21.72,4.68l-90.56-11.42c-17.45-2.2-31.83-14.74-36.38-31.73l-22.06-82.32c-4.8-17.9-.9-37.01,10.51-51.61l41.13-52.61c3.87-4.95,7.38-10.16,10.51-15.59,7.76-13.44,11.72-28.74,11.72-44.26v-51.06h189.95v118.17c0,11.11-1.07,22.2-3.18,33.11l-3.53,18.19c-3.62,18.66-2.34,37.93,3.72,55.95"/>
  <path class="uuid-98988fbb-1e45-49f1-9db4-f2531aece75b" d="M228.79,524.19l9.78,35.41c3.05,10.61,11.1,19.06,21.55,22.62h0c18.62,6.35,38.89-3.34,45.66-21.8h0c2.24-6.12,3.13-12.61,2.65-19.02-.28-3.75-1.03-7.47-2.24-11.08l-7-24.96"/>
  <path class="uuid-cdf1cba1-b9b9-4a70-8a9c-0b48ead95b9e" d="M228.79,524.19l9.78,35.41c3.05,10.61,11.1,19.06,21.55,22.62h0c18.62,6.35,38.89-3.34,45.66-21.8h0c2.24-6.12,3.13-12.61,2.65-19.02-.28-3.75-1.03-7.47-2.24-11.08l-7-24.96"/>
</svg>