<?xml version="1.0" encoding="UTF-8"?>
<svg id="uuid-b8f226a3-956e-4d00-99aa-967261acf487" data-name="레이어 2" xmlns="http://www.w3.org/2000/svg" viewBox="0 0 488 788">
  <defs>
    <style>
      .uuid-b4650c5e-c66f-4363-85cf-c97be90be5f4 {
        fill: #abffff;
      }

      .uuid-b4650c5e-c66f-4363-85cf-c97be90be5f4, .uuid-d88d49b5-9725-489f-bf79-abea51e9d196, .uuid-c8604589-9435-40a3-91ee-9f8ff0d5926c, .uuid-0c33d3be-8a28-4c45-b02d-dcf213c4bc87 {
        stroke: #000;
        stroke-width: 8px;
      }

      .uuid-b4650c5e-c66f-4363-85cf-c97be90be5f4, .uuid-c8604589-9435-40a3-91ee-9f8ff0d5926c {
        stroke-linecap: round;
        stroke-linejoin: round;
      }

      .uuid-d88d49b5-9725-489f-bf79-abea51e9d196, .uuid-0c33d3be-8a28-4c45-b02d-dcf213c4bc87 {
        stroke-miterlimit: 10;
      }

      .uuid-d88d49b5-9725-489f-bf79-abea51e9d196, .uuid-df34154c-4748-4783-bf60-bd083d41994d {
        fill: #ffd5b3;
      }

      .uuid-c8604589-9435-40a3-91ee-9f8ff0d5926c, .uuid-0c33d3be-8a28-4c45-b02d-dcf213c4bc87 {
        fill: none;
      }

      .uuid-f9c8194d-d57e-4615-9d68-b203d814eae2 {
        fill: #f8ffe9;
      }

      .uuid-f9c8194d-d57e-4615-9d68-b203d814eae2, .uuid-78d6f8b7-6427-4862-81fd-e76699ab97a9, .uuid-c3f0a983-d3df-4584-9301-06ce74cc9ef8, .uuid-df34154c-4748-4783-bf60-bd083d41994d {
        stroke-width: 0px;
      }

      .uuid-78d6f8b7-6427-4862-81fd-e76699ab97a9 {
        fill: #d5d8e0;
      }

      .uuid-c3f0a983-d3df-4584-9301-06ce74cc9ef8 {
        fill: #fff;
      }
    </style>
  </defs>
  <path class="uuid-d88d49b5-9725-489f-bf79-abea51e9d196" d="M18.03,559.74l-2.45,25.13c-1.22,12.53,3.04,24.98,11.68,34.14l56.48,59.88c4.61,4.89,11.54,6.86,18.03,5.12h0c4.33-1.16,8.09-3.88,10.55-7.63l7.91-12.05"/>
  <path class="uuid-df34154c-4748-4783-bf60-bd083d41994d" d="M224.12,520.19c-4.5-15.64-13.8-29.46-26.59-39.52h0c-18.72-14.71-43.97-18.05-65.86-8.7h0c-11.52,4.92-19.61,15.52-21.32,27.93l-.4,2.92c-2.12,15.44,5.45,30.59,19.06,38.17l14.31,7.96c6.2,3.45,12.87,5.99,19.8,7.54l33.32,7.45c8.61,1.92,15.67,8.05,18.79,16.31h0c4.45,11.77-.09,25.03-10.82,31.61h0c-6.5,3.98-14.16,5.63-21.72,4.68l-90.56-11.42c-17.45-2.2-31.83-14.74-36.38-31.73l-22.06-82.32c-4.8-17.9-.9-37.01,10.51-51.61l41.13-52.61c3.87-4.95,7.38-10.16,10.51-15.59,7.76-13.44,11.72-28.74,11.72-44.26v-51.06h189.95v118.17c0,11.11-1.07,22.2-3.18,33.11l-3.53,18.19c-3.62,18.66-2.34,37.93,3.72,55.95l-70.4,18.83Z"/>
  <rect class="uuid-f9c8194d-d57e-4615-9d68-b203d814eae2" x="93.44" y="143.61" width="218.21" height="132.32"/>
  <rect class="uuid-f9c8194d-d57e-4615-9d68-b203d814eae2" x="107.57" y="4.11" width="189.95" height="139.5"/>
  <path class="uuid-0c33d3be-8a28-4c45-b02d-dcf213c4bc87" d="M107.57,326.99v-51.06h189.95v118.17c0,11.11-1.07,22.2-3.18,33.11l-3.53,18.19c-3.62,18.66-2.34,37.93,3.72,55.95l7,24.96c3.29,9.79,3.15,20.41-.4,30.1h0c-6.77,18.47-27.05,28.15-45.66,21.8h0c-10.45-3.56-18.5-12.01-21.55-22.62l-9.78-35.41c-4.5-15.64-13.8-29.46-26.59-39.52h0c-18.72-14.71-43.97-18.05-65.86-8.7h0c-11.52,4.92-19.61,15.52-21.32,27.93l-.4,2.92c-2.12,15.44,5.45,30.59,19.06,38.17l14.31,7.96c6.2,3.45,12.87,5.99,19.8,7.54l33.32,7.45c8.61,1.92,15.67,8.05,18.79,16.31h0c4.45,11.77-.09,25.03-10.82,31.61h0c-6.5,3.98-14.16,5.63-21.72,4.68l-90.56-11.42c-17.45-2.2-31.83-14.74-36.38-31.73l-22.06-82.32c-4.8-17.9-.9-37.01,10.51-51.61l41.13-52.61c3.87-4.95,7.38-10.16,10.51-15.59,7.76-13.44,11.72-28.74,11.72-44.26Z"/>
  <path class="uuid-d88d49b5-9725-489f-bf79-abea51e9d196" d="M31.87,480.42l-21.36,32.97c-8.8,13.59-7.02,31.47,4.3,43.05l106.44,108.93c4.59,4.7,11.09,7.03,17.62,6.33h0c8.84-.95,16.19-7.26,18.45-15.86h0c1.71-6.49,1.45-13.35-.75-19.69l-8.3-23.97"/>
  <rect class="uuid-0c33d3be-8a28-4c45-b02d-dcf213c4bc87" x="93.44" y="143.61" width="218.21" height="132.32"/>
  <polyline class="uuid-0c33d3be-8a28-4c45-b02d-dcf213c4bc87" points="107.57 4.11 107.57 143.61 297.52 143.61 297.52 4.11"/>
  <circle class="uuid-b4650c5e-c66f-4363-85cf-c97be90be5f4" cx="244.41" cy="224.64" r="16.74"/>
  <path class="uuid-0c33d3be-8a28-4c45-b02d-dcf213c4bc87" d="M224.12,520.19c-4.5-15.64-13.8-29.46-26.59-39.52h0c-18.72-14.71-43.97-18.05-65.86-8.7h0c-11.52,4.92-19.61,15.52-21.32,27.93l-.4,2.92c-2.12,15.44,5.45,30.59,19.06,38.17l14.31,7.96c6.2,3.45,12.87,5.99,19.8,7.54l33.32,7.45c8.61,1.92,15.67,8.05,18.79,16.31h0c4.45,11.77-.09,25.03-10.82,31.61h0c-6.5,3.98-14.16,5.63-21.72,4.68l-90.56-11.42c-17.45-2.2-31.83-14.74-36.38-31.73l-22.06-82.32c-4.8-17.9-.9-37.01,10.51-51.61l41.13-52.61c3.87-4.95,7.38-10.16,10.51-15.59,7.76-13.44,11.72-28.74,11.72-44.26v-51.06h189.95v118.17c0,11.11-1.07,22.2-3.18,33.11l-3.53,18.19c-3.62,18.66-2.34,37.93,3.72,55.95"/>
  <g>
    <g>
      <polygon class="uuid-78d6f8b7-6427-4862-81fd-e76699ab97a9" points="440.4 758.16 440.4 783.89 71.99 783.89 71.99 537.39 114.66 758.16 440.4 758.16"/>
      <polygon class="uuid-c3f0a983-d3df-4584-9301-06ce74cc9ef8" points="440.4 537.39 483.06 758.16 440.4 758.16 114.66 758.16 71.99 537.39 440.4 537.39"/>
    </g>
    <g>
      <polyline class="uuid-c8604589-9435-40a3-91ee-9f8ff0d5926c" points="71.99 537.39 71.99 783.89 440.4 783.89 440.4 758.16"/>
      <polygon class="uuid-c8604589-9435-40a3-91ee-9f8ff0d5926c" points="440.4 758.16 483.06 758.16 440.4 537.39 71.99 537.39 114.66 758.16 440.4 758.16"/>
    </g>
  </g>
  <path class="uuid-0c33d3be-8a28-4c45-b02d-dcf213c4bc87" d="M224.12,520.19l9.78,35.41c3.05,10.61,11.1,19.06,21.55,22.62h0c18.62,6.35,38.89-3.34,45.66-21.8h0c2.24-6.12,3.13-12.61,2.65-19.02-.28-3.75-1.03-7.47-2.24-11.08l-7-24.96"/>
  <path class="uuid-d88d49b5-9725-489f-bf79-abea51e9d196" d="M224.12,520.19l9.78,35.41c3.05,10.61,11.1,19.06,21.55,22.62h0c18.62,6.35,38.89-3.34,45.66-21.8h0c2.24-6.12,3.13-12.61,2.65-19.02-.28-3.75-1.03-7.47-2.24-11.08l-7-24.96"/>
</svg>