<?xml version="1.0" encoding="UTF-8"?>
<svg id="uuid-60475941-e433-47c1-a030-8ac27a200c0a" data-name="레이어 2" xmlns="http://www.w3.org/2000/svg" viewBox="0 0 1620 400">
  <defs>
    <style>
      .uuid-500e3b3d-39d7-4e3c-81d9-3e9cff22bf97 {
        fill: none;
        stroke: #000;
        stroke-miterlimit: 10;
        stroke-width: 8px;
      }

      .uuid-0293a7da-949d-4a9b-9bb6-fa04a4a5e367 {
        fill: #dd4759;
      }

      .uuid-0293a7da-949d-4a9b-9bb6-fa04a4a5e367, .uuid-a98de91f-283e-4b2b-bb7e-0bc09509ef1d, .uuid-bacdab7f-7840-496a-811b-057cbef68c7b, .uuid-dc2e9b69-7cbb-4639-8ffa-ab268583d386, .uuid-fb77250c-74b3-48d9-a8dd-51960f147966, .uuid-354e3b52-6bff-49f1-8c12-33b7fcf0a5f0, .uuid-7e02f72a-ffcd-42af-9538-b9658700b2b1 {
        stroke-width: 0px;
      }

      .uuid-a98de91f-283e-4b2b-bb7e-0bc09509ef1d {
        fill: #c12b2b;
      }

      .uuid-bacdab7f-7840-496a-811b-057cbef68c7b {
        fill: #ff9494;
      }

      .uuid-dc2e9b69-7cbb-4639-8ffa-ab268583d386 {
        fill: #ffe6a9;
      }

      .uuid-fb77250c-74b3-48d9-a8dd-51960f147966 {
        fill: #faf0d6;
      }

      .uuid-354e3b52-6bff-49f1-8c12-33b7fcf0a5f0 {
        fill: #ff4d5a;
      }

      .uuid-7e02f72a-ffcd-42af-9538-b9658700b2b1 {
        fill: #ffc68d;
      }
    </style>
  </defs>
  <g>
    <polygon class="uuid-bacdab7f-7840-496a-811b-057cbef68c7b" points="1607.53 57.56 1607.53 375.6 1586.43 375.6 1586.43 367.74 1586.43 65.42 1586.43 57.56 1607.53 57.56"/>
    <path class="uuid-354e3b52-6bff-49f1-8c12-33b7fcf0a5f0" d="M1558.95,90.44H115.59c1-11.24,2.22-19.16,3.62-25.02h1467.22v302.32H115.85c4.34-2.4,6.9-4.96,6.9-7.32,0-2.58-.38-7.46-.98-14.3l.98-.1h1436.2V90.44Z"/>
    <path class="uuid-fb77250c-74b3-48d9-a8dd-51960f147966" d="M115.61,90.44h1443.34v255.58H122.75l-.98.1c-2.5-28.1-8.84-89.4-8.84-161.8,0-45.46.98-74.58,2.66-93.88h.02Z"/>
    <path class="uuid-0293a7da-949d-4a9b-9bb6-fa04a4a5e367" d="M121.77,346.12c.6,6.84.98,11.72.98,14.3,0-9.02-26.86-18.06-54.96-18.06s-54.92,8.4-54.92,15.76c0-12.16,9.06-83.76,9.06-173.8s-3.84-115.98-9.46-128.54c5.12-5.24,14.9-11.12,28.4-14.7,7.7-2.04,16.6-3.34,26.56-3.34s18.98,1.26,26.6,3.28c13.62,3.56,23.2,9.5,28.36,14.76-1.14,2.54-2.2,5.6-3.18,9.64-1.4,5.86-2.62,13.78-3.62,25.02-1.68,19.3-2.66,48.42-2.66,93.88,0,72.4,6.34,133.7,8.84,161.8Z"/>
    <path class="uuid-dc2e9b69-7cbb-4639-8ffa-ab268583d386" d="M94.03,41v.02c-7.62-2.02-16.5-3.28-26.6-3.28s-18.86,1.3-26.56,3.34l-.02-.08c0-12.08,0-22.06,26.58-22.06s26.6,9.98,26.6,22.06Z"/>
    <path class="uuid-a98de91f-283e-4b2b-bb7e-0bc09509ef1d" d="M115.85,367.74h-.02c-6.52,3.6-17.08,6.82-29.14,8.46,5.06-3.58,7.34-8.76,7.34-14.48,0-5.3-7.78-9.68-26.6-9.68s-26.58,4.38-26.58,9.68,1.86,9.9,5.96,13.38l-.02.02c-18.94-3.64-33.92-11.02-33.92-17,0-7.36,27.54-15.76,54.92-15.76s54.96,9.04,54.96,18.06c0,2.36-2.56,4.92-6.9,7.32Z"/>
    <path class="uuid-7e02f72a-ffcd-42af-9538-b9658700b2b1" d="M67.43,381.06c-9.62,0-16.36-2.28-20.62-5.96-4.1-3.48-5.96-8.22-5.96-13.38s7.76-9.68,26.58-9.68,26.6,4.38,26.6,9.68c0,5.72-2.28,10.9-7.34,14.48h-.02c-4.3,3.02-10.6,4.86-19.24,4.86Z"/>
  </g>
  <g>
    <path class="uuid-500e3b3d-39d7-4e3c-81d9-3e9cff22bf97" d="M12.87,358.12c0-12.16,9.06-83.76,9.06-173.8s-3.84-115.98-9.46-128.54c5.12-5.24,14.9-11.12,28.4-14.7,7.7-2.04,16.6-3.34,26.56-3.34s18.98,1.26,26.6,3.28c13.62,3.56,23.2,9.5,28.36,14.76-1.14,2.54-2.2,5.6-3.18,9.64-1.4,5.86-2.62,13.78-3.62,25.02-1.68,19.3-2.66,48.42-2.66,93.88,0,72.4,6.34,133.7,8.84,161.8.6,6.84.98,11.72.98,14.3"/>
    <path class="uuid-500e3b3d-39d7-4e3c-81d9-3e9cff22bf97" d="M115.85,367.74c4.34-2.4,6.9-4.96,6.9-7.32"/>
    <path class="uuid-500e3b3d-39d7-4e3c-81d9-3e9cff22bf97" d="M86.69,376.2c12.06-1.64,22.62-4.86,29.14-8.46"/>
    <path class="uuid-500e3b3d-39d7-4e3c-81d9-3e9cff22bf97" d="M12.87,358.12c0,5.98,14.98,13.36,33.92,17"/>
    <path class="uuid-500e3b3d-39d7-4e3c-81d9-3e9cff22bf97" d="M12.87,358.12c0-7.36,27.54-15.76,54.92-15.76s54.96,9.04,54.96,18.06"/>
    <path class="uuid-500e3b3d-39d7-4e3c-81d9-3e9cff22bf97" d="M1586.43,367.74H115.83"/>
    <polyline class="uuid-500e3b3d-39d7-4e3c-81d9-3e9cff22bf97" points="119.13 65.42 119.21 65.42 1586.43 65.42"/>
    <path class="uuid-500e3b3d-39d7-4e3c-81d9-3e9cff22bf97" d="M94.03,361.72c0-5.3-7.78-9.68-26.6-9.68s-26.58,4.38-26.58,9.68"/>
    <path class="uuid-500e3b3d-39d7-4e3c-81d9-3e9cff22bf97" d="M94.03,41c0-12.08,0-22.06-26.6-22.06s-26.58,9.98-26.58,22.06"/>
    <polygon class="uuid-500e3b3d-39d7-4e3c-81d9-3e9cff22bf97" points="1586.43 65.42 1586.43 57.56 1607.53 57.56 1607.53 375.6 1586.43 375.6 1586.43 367.74 1586.43 65.42"/>
    <polyline class="uuid-500e3b3d-39d7-4e3c-81d9-3e9cff22bf97" points="122.75 346.02 1558.95 346.02 1558.95 90.44 115.61 90.44"/>
    <path class="uuid-500e3b3d-39d7-4e3c-81d9-3e9cff22bf97" d="M40.85,361.72c0,5.16,1.86,9.9,5.96,13.38,4.26,3.68,11,5.96,20.62,5.96,8.64,0,14.94-1.84,19.24-4.86h.02c5.06-3.58,7.34-8.76,7.34-14.48"/>
  </g>
</svg>