<?xml version="1.0" encoding="UTF-8"?>
<svg id="uuid-d6fd4316-ed69-4f54-89db-abbd8160a337" data-name="레이어 2" xmlns="http://www.w3.org/2000/svg" xmlns:xlink="http://www.w3.org/1999/xlink" viewBox="0 0 900 900">
  <defs>
    <style>
      .uuid-4231bac1-33fe-42b8-9676-26a9d7906f77 {
        clip-path: url(#uuid-f1712764-f033-4901-b94c-51857afc04f8);
      }

      .uuid-c13f96c0-ffaf-456f-b5e5-b3fa234bdad3, .uuid-e5d92f79-0301-4b35-8567-73275d95cff6, .uuid-35ab3621-5966-4b3c-8954-08946dd018ff, .uuid-23671100-a0b7-4807-ae08-12377ed5e85e, .uuid-df3d1c69-44ba-4c5f-a507-e3e1cf5fc610, .uuid-9525d219-2020-4c58-8f31-a85d5b258384, .uuid-436e8986-43a5-4c41-a78f-9cc7fea340bd, .uuid-0f9502cd-9eac-406f-850a-e3bdda097e94, .uuid-7f6b3db4-ca4b-465a-90df-569e9351aabb, .uuid-d321b631-982b-4fd3-b57c-f05b47d53d6c {
        stroke-width: 0px;
      }

      .uuid-c13f96c0-ffaf-456f-b5e5-b3fa234bdad3, .uuid-3dd627d7-8203-4a14-a39b-5a8b84e6bb88 {
        fill: none;
      }

      .uuid-f005a6d5-0139-434c-886b-6a157b6bdd4c {
        clip-path: url(#uuid-b3384120-8733-48d0-b444-fb6642d396f7);
      }

      .uuid-9c7f4581-7814-4f9a-9ccd-03326d3b4f61 {
        clip-path: url(#uuid-4fbcd4fc-e0c8-492b-88b7-2d7422dab9ff);
      }

      .uuid-3dd627d7-8203-4a14-a39b-5a8b84e6bb88 {
        stroke: #000;
        stroke-miterlimit: 10;
        stroke-width: 16px;
      }

      .uuid-0c63452b-1d1e-43b5-8ffb-100603076a89 {
        isolation: isolate;
      }

      .uuid-35ab3621-5966-4b3c-8954-08946dd018ff {
        fill: #770b68;
      }

      .uuid-23671100-a0b7-4807-ae08-12377ed5e85e {
        fill: #dd4759;
      }

      .uuid-df3d1c69-44ba-4c5f-a507-e3e1cf5fc610 {
        fill: #c12b2b;
      }

      .uuid-9525d219-2020-4c58-8f31-a85d5b258384 {
        fill: #9e1985;
      }

      .uuid-436e8986-43a5-4c41-a78f-9cc7fea340bd {
        fill: #819499;
      }

      .uuid-0f9502cd-9eac-406f-850a-e3bdda097e94 {
        fill: #fff;
      }

      .uuid-7f6b3db4-ca4b-465a-90df-569e9351aabb {
        fill: #faf0d6;
      }

      .uuid-d321b631-982b-4fd3-b57c-f05b47d53d6c {
        fill: #ff4d5a;
      }
    </style>
    <clipPath id="uuid-b3384120-8733-48d0-b444-fb6642d396f7">
      <polygon class="uuid-c13f96c0-ffaf-456f-b5e5-b3fa234bdad3" points="175.23 608.17 175.9 371.56 389.3 494.76 388.63 731.37 175.23 608.17"/>
    </clipPath>
    <clipPath id="uuid-f1712764-f033-4901-b94c-51857afc04f8">
      <polygon class="uuid-c13f96c0-ffaf-456f-b5e5-b3fa234bdad3" points="180.92 604.92 181.56 381.36 383.61 498.01 382.98 721.58 180.92 604.92"/>
    </clipPath>
    <clipPath id="uuid-4fbcd4fc-e0c8-492b-88b7-2d7422dab9ff">
      <polygon class="uuid-c13f96c0-ffaf-456f-b5e5-b3fa234bdad3" points="569.52 656.4 569.13 519.06 688.64 450.06 689.03 587.39 569.52 656.4"/>
    </clipPath>
  </defs>
  <g>
    <g>
      <path class="uuid-7f6b3db4-ca4b-465a-90df-569e9351aabb" d="M796.7,602.25v47.75l-41.85,24.16c-6.48-30.87,11.24-61.88,41.28-71.91h.57Z"/>
      <path class="uuid-23671100-a0b7-4807-ae08-12377ed5e85e" d="M452.39,497.42l.22-.68c30.04-10.03,47.75-41.04,41.28-71.91l268.15-154.82c7.43,13.02,19.52,23.35,34.66,28.31v303.93h-.57c-30.04,10.03-47.76,41.04-41.28,71.91l-262.88,151.78c-11.89-10.53-26.8-15.74-41.68-15.66v-313.57c.69.25,1.39.49,2.1.71Z"/>
      <path class="uuid-7f6b3db4-ca4b-465a-90df-569e9351aabb" d="M796.7,250v48.32c-15.14-4.96-27.23-15.29-34.66-28.31l34.66-20.01Z"/>
      <path class="uuid-7f6b3db4-ca4b-465a-90df-569e9351aabb" d="M796.7,250l-34.66,20.01c-7.3-12.73-10.12-28.04-6.99-43.39l.29-.5,41.36,23.88Z"/>
      <path class="uuid-d321b631-982b-4fd3-b57c-f05b47d53d6c" d="M493.89,424.83l-.49.28-.28-.49c-23.79-21.08-59.7-20.83-83.19.45l.47.53-.24,1.23-271.62-156.82c7.55-12.94,10.45-28.58,7.18-44.17L408.93,73.88l.28.49c23.7,21,59.42,20.83,82.92-.21l263.21,151.96-.29.5c-3.13,15.35-.31,30.66,6.99,43.39l-268.15,154.82ZM579.16,250c0-41.09-57.7-74.4-128.87-74.4s-128.88,33.31-128.88,74.4,57.7,74.41,128.88,74.41,128.87-33.32,128.87-74.41Z"/>
      <path class="uuid-436e8986-43a5-4c41-a78f-9cc7fea340bd" d="M450.29,175.6c71.17,0,128.87,33.31,128.87,74.4s-57.7,74.41-128.87,74.41-128.88-33.32-128.88-74.41,57.7-74.4,128.88-74.4Z"/>
      <path class="uuid-7f6b3db4-ca4b-465a-90df-569e9351aabb" d="M493.89,424.83c6.47,30.87-11.24,61.88-41.28,71.91l-.22.68c-.71-.22-1.41-.46-2.1-.71v-46.71l43.11-24.89.49-.28Z"/>
      <path class="uuid-7f6b3db4-ca4b-465a-90df-569e9351aabb" d="M493.12,424.62l.28.49-43.11,24.89-40.13-23.17.24-1.23-.47-.53c23.49-21.28,59.4-21.53,83.19-.45Z"/>
      <path class="uuid-7f6b3db4-ca4b-465a-90df-569e9351aabb" d="M450.29,50l41.84,24.16c-23.5,21.04-59.22,21.21-82.92.21l-.28-.49,41.36-23.88Z"/>
      <path class="uuid-7f6b3db4-ca4b-465a-90df-569e9351aabb" d="M491.97,825.94l-41.68,24.06v-39.72c14.88-.08,29.79,5.13,41.68,15.66Z"/>
      <path class="uuid-7f6b3db4-ca4b-465a-90df-569e9351aabb" d="M450.29,810.28v39.72l-41.27-23.83c11.71-10.5,26.47-15.81,41.27-15.89Z"/>
      <path class="uuid-df3d1c69-44ba-4c5f-a507-e3e1cf5fc610" d="M450.29,496.71v313.57c-14.8.08-29.56,5.39-41.27,15.89l-263.78-152.29c6.74-31.14-11.17-62.41-41.36-72.39v-303.73h.56c14.86-4.96,26.71-15.07,34.1-27.75l271.62,156.82c-5.5,29.99,11.61,59.57,40.13,69.88Z"/>
      <path class="uuid-7f6b3db4-ca4b-465a-90df-569e9351aabb" d="M450.29,450v46.71c-28.52-10.31-45.63-39.89-40.13-69.88l40.13,23.17Z"/>
      <path class="uuid-7f6b3db4-ca4b-465a-90df-569e9351aabb" d="M145.72,225.84c3.27,15.59.37,31.23-7.18,44.17l-34.66-20.01,41.84-24.16Z"/>
      <path class="uuid-7f6b3db4-ca4b-465a-90df-569e9351aabb" d="M103.88,601.49c30.19,9.98,48.1,41.25,41.36,72.39l-41.36-23.88v-48.51Z"/>
      <path class="uuid-7f6b3db4-ca4b-465a-90df-569e9351aabb" d="M103.88,250l34.66,20.01c-7.39,12.68-19.24,22.79-34.1,27.75h-.56v-47.76Z"/>
    </g>
    <g>
      <polygon class="uuid-3dd627d7-8203-4a14-a39b-5a8b84e6bb88" points="492.13 74.16 450.29 50 408.93 73.88 145.72 225.84 103.88 250 103.88 297.76 103.88 601.49 103.88 650 145.24 673.88 409.02 826.17 450.29 850 491.97 825.94 754.85 674.16 796.7 650 796.7 602.25 796.7 298.32 796.7 250 755.34 226.12 492.13 74.16"/>
      <polyline class="uuid-3dd627d7-8203-4a14-a39b-5a8b84e6bb88" points="103.88 250 138.54 270.01 410.16 426.83 450.29 450"/>
      <polyline class="uuid-3dd627d7-8203-4a14-a39b-5a8b84e6bb88" points="796.7 250 762.04 270.01 493.89 424.83 493.4 425.11 450.29 450"/>
      <polyline class="uuid-3dd627d7-8203-4a14-a39b-5a8b84e6bb88" points="450.29 850 450.29 810.28 450.29 496.71 450.29 450"/>
      <path class="uuid-3dd627d7-8203-4a14-a39b-5a8b84e6bb88" d="M579.16,250c0,41.09-57.7,74.41-128.87,74.41s-128.88-33.32-128.88-74.41,57.7-74.4,128.88-74.4,128.87,33.31,128.87,74.4Z"/>
      <path class="uuid-3dd627d7-8203-4a14-a39b-5a8b84e6bb88" d="M145.24,673.88c6.74-31.14-11.17-62.41-41.36-72.39"/>
      <path class="uuid-3dd627d7-8203-4a14-a39b-5a8b84e6bb88" d="M796.13,602.25c-30.04,10.03-47.76,41.04-41.28,71.91.03.2.08.39.12.59"/>
      <path class="uuid-3dd627d7-8203-4a14-a39b-5a8b84e6bb88" d="M755.05,226.62c-3.13,15.35-.31,30.66,6.99,43.39,7.43,13.02,19.52,23.35,34.66,28.31.19.07.38.13.57.19"/>
      <path class="uuid-3dd627d7-8203-4a14-a39b-5a8b84e6bb88" d="M409.21,74.37c23.7,21,59.42,20.83,82.92-.21.15-.13.3-.26.45-.4"/>
      <path class="uuid-3dd627d7-8203-4a14-a39b-5a8b84e6bb88" d="M104.44,297.76c14.86-4.96,26.71-15.07,34.1-27.75,7.55-12.94,10.45-28.58,7.18-44.17-.03-.2-.08-.39-.12-.59"/>
      <path class="uuid-3dd627d7-8203-4a14-a39b-5a8b84e6bb88" d="M452.61,496.74c30.04-10.03,47.75-41.04,41.28-71.91-.03-.2-.08-.4-.12-.6"/>
      <path class="uuid-3dd627d7-8203-4a14-a39b-5a8b84e6bb88" d="M493.12,424.62c-23.79-21.08-59.7-20.83-83.19.45-.06.05-.12.11-.18.16"/>
      <path class="uuid-3dd627d7-8203-4a14-a39b-5a8b84e6bb88" d="M410.4,425.6l-.24,1.23c-5.5,29.99,11.61,59.57,40.13,69.88.69.25,1.39.49,2.1.71.08.03.15.06.23.08"/>
      <path class="uuid-3dd627d7-8203-4a14-a39b-5a8b84e6bb88" d="M491.97,825.94c-11.89-10.53-26.8-15.74-41.68-15.66-14.8.08-29.56,5.39-41.27,15.89-.14.13-.28.25-.42.38"/>
    </g>
  </g>
  <g class="uuid-0c63452b-1d1e-43b5-8ffb-100603076a89">
    <g class="uuid-f005a6d5-0139-434c-886b-6a157b6bdd4c">
      <g>
        <path class="uuid-e5d92f79-0301-4b35-8567-73275d95cff6" d="M223.1,451.41c-.27-1.04-.53-2.05-.77-3.04.48.49.99.94,1.51,1.31-.24.57-.49,1.15-.74,1.73M202.33,439.98c-.4-1.46-.8-2.92-1.21-4.39.8.99,1.58,1.67,2.16,2.1-.32.77-.64,1.54-.95,2.29M215.36,427.83c-.48-.51-.97-.94-1.45-1.29.22-.76.43-1.54.65-2.35.14.62.28,1.26.42,1.91.13.57.25,1.15.38,1.73M225.05,424.97l-.05-.23.15-.05c-.03.09-.06.18-.1.28M192.19,402.38c-.18-.63-.41-1.36-.7-2.15.33.19.64.38.97.57-.14.51-.23,1.04-.27,1.58M190.48,386.58c-3.21-1.85-6.32-3.53-8.17-4.36-2.95-1.34-6.05-.25-6.3,5.19-.24,5.04,1.96,10.37,5.5,13.32.08.23.2.62.37,1.28l.07.26c3.41,12.81,6.94,26.06,10.37,38.4,1.72,6.11,3.95,10.56,9.8,13.94,4.72,2.72,8.39,1.94,10.08-2.13.19-.45.39-.92.59-1.4.23.88.47,1.78.71,2.69l.03.11c1.74,6.2,4.53,9.93,9.62,12.87,4.34,2.5,7.87,1.54,9.7-2.64,3.91-8.96,6.87-16.22,9.16-22.49v-3.98c-1.09-1.55-2.02-3.41-2.65-5.41-1.75-5.53-.76-9.71,2.41-10.19,1.33-.22,3.03-.31,4.94-.19-1.01-1.82-2.33-3.39-3.87-4.55-2.1-1.56-4.76-3.27-7.4-4.79-2.17-1.25-4.32-2.38-6.13-3.18-1.55-.7-2.91-.72-3.96-.14-.91-1.42-2.03-2.66-3.3-3.63-2.11-1.56-5.17-3.51-8.17-5.24-2.43-1.4-4.82-2.67-6.62-3.47-1.15-.52-2.32-.69-3.34-.4-.99-1.5-2.12-2.67-3.18-3.46h-.01c-2.07-1.56-6.23-4.14-10.23-6.45"/>
        <path class="uuid-e5d92f79-0301-4b35-8567-73275d95cff6" d="M245.68,465.98l-.03-.02.03.02M265.52,477.43l-.03-.02.03.02M255.67,424.11c-.37-.21-.74-.39-1.11-.53-2.71-1.04-5.45-1.55-7.87-1.7-1.9-.12-3.61-.03-4.94.19-3.17.48-4.16,4.66-2.41,10.19.63,2,1.56,3.86,2.66,5.41v3.98s-.06,18.28-.06,18.28c-2.33.25-3.79,2.53-3.7,6.23.11,4.75,2.91,9.97,6.62,12.39,1.45.95,4.4,2.72,7.34,4.41s5.84,3.31,7.24,4.01c.95.48,1.84.7,2.65.7.79.92,1.68,1.72,2.62,2.33,1.45.95,4.4,2.71,7.33,4.41s5.74,3.26,7.12,3.95c1.56.79,2.97.89,4.08.41-1.04-1.25-1.99-2.59-2.84-4.01-2.76-4.62-4.27-9.81-4.26-14.61.01-3.97,1.28-6.81,3.68-8.29-1.53-3.76-1.87-7.53-.95-10.66.2-.68.5-1.39.93-2.06-1.84-5.06-5.06-10.38-10.73-14.87-.99-.78-1.97-1.45-2.95-2.01-1.03-.6-2.05-1.07-3.04-1.41.73-2.23.3-5.58-1.22-9.07-1.51-3.46-3.82-6.28-6.19-7.65"/>
        <path class="uuid-e5d92f79-0301-4b35-8567-73275d95cff6" d="M297.09,492.54c-.76-1.22-1.34-2.67-1.43-3.75.03-.28.14-.56.27-.79.19.24.4.53.59.87.6,1.04.88,2.08.88,2.64,0,.43-.13.77-.31,1.03M298.24,460.78c-11.68-6.74-16.47-4.67-18.44-1.65-.44.67-.73,1.39-.93,2.06-.92,3.12-.58,6.9.95,10.66-2.4,1.48-3.66,4.32-3.68,8.29-.01,4.81,1.49,9.99,4.26,14.61.85,1.42,1.8,2.76,2.84,4.01,2.21,2.66,4.79,4.88,7.56,6.48.32.18.64.36.96.53,2.99,1.56,5.68,2.39,8.05,2.47,1.67,2.46,3.82,4.39,6.57,5.98,3.95,2.28,7.94,2.75,10.81,1.44-2.02-3.97-3.4-9.08-3.38-15.62l.02-8.52c-2.1-1.81-5.36-5.68-5.34-12.24.01-3.59,1.06-5.34,2.45-6.07-3.15-4.98-7.46-9.35-12.42-12.26-.09-.06-.19-.11-.28-.16"/>
        <path class="uuid-e5d92f79-0301-4b35-8567-73275d95cff6" d="M324.3,488.61c-.19-.49-.41-.98-.65-1.45.2-.09.41-.17.6-.28.17.41.35.82.55,1.21-.18.15-.34.33-.49.52M327.04,470.96c-1.69-.98-6.84-3.95-9.46.52-1,1.74-1.35,1.8-3.26,1.43-1.13-.24-2.35-.26-3.38.29-1.39.73-2.43,2.47-2.45,6.07-.02,6.56,3.24,10.42,5.34,12.24l-.02,8.52c-.02,6.54,1.37,11.65,3.38,15.62,2.23,4.4,5.24,7.41,7.98,9.41.97.71,1.92,1.34,2.84,1.87,7.15,4.13,12.7,2.85,15.47-3.72,1.18-2.83.33-7.17-2.14-10.8-1.24-1.82-2.73-3.24-4.24-4.12-.88-.51-1.77-.84-2.63-.95v-3.65s1.01.58,1.01.58c2.46,1.42,6.37,2.71,7.4-2.57-2.68-1.56-5.14-4.58-6.42-8.13-1.3-3.6-1.03-6.75.58-8.37-.58-.44-1.13-.8-1.63-1.09l-.88-.51c-.11-4.89-3.23-10.16-7.5-12.63"/>
        <path class="uuid-e5d92f79-0301-4b35-8567-73275d95cff6" d="M346.68,470.16c-6.23-3.59-10.93-.88-10.95,6.31,0,2.68.68,5.55,1.88,8.26-.2.14-.38.29-.55.46-1.61,1.62-1.88,4.77-.58,8.37,1.28,3.55,3.74,6.57,6.42,8.13,0,0,.01,0,.02.01.81.47,1.65.8,2.48.98,2.39.5,4.49.37,6.24-.36.92-1.97,2.34-3.29,4.2-3.91,1.28-2.36,1.91-5.58,1.79-9.53-.2-7.19-4.91-15.23-10.94-18.71"/>
        <path class="uuid-e5d92f79-0301-4b35-8567-73275d95cff6" d="M382.27,522.58l-.03-.06.03.06M368.09,501.05c-.84-.48-1.68-.91-2.53-1.3h0c-3.92-1.77-7.22-2.19-9.72-1.35-1.86.62-3.28,1.94-4.2,3.91-.78,1.67-1.19,3.8-1.19,6.38,0,3.19.72,6.22,1.91,9.03-2.46.76-3.33,3.22-2.67,7.51.62,3.83,2.04,8.05,4.32,12.9l.16.33c1.01,2,3.06,5.27,6.37,7.18.72.42,1.51.77,2.36,1.04.82.26,1.59.61,2.42,1.09.67.39,1.38.86,2.18,1.46,1.15.85,2.44,1.71,3.8,2.5,4.25,2.45,9.2,4.23,12.69,3.09,3.67-1.2,5.41-4.7,5.17-10.37-.19-4.48-1.5-8.48-3.38-11.99,1.38-.94,1.92-2.95,1.6-6.03-.32-3.41-1.49-7.51-3.2-11.23l-.04-.1c-2.21-4.74-4.93-7.02-6.93-8.18-.98-.56-1.78-.86-2.26-1.03-.15-.06-.29-.12-.46-.21-.22-.13-.47-.31-.82-.61-1.92-1.63-3.74-2.94-5.58-4"/>
        <path class="uuid-e5d92f79-0301-4b35-8567-73275d95cff6" d="M182.94,512.05l-.03-.02.03.02M188.96,479.94c-.24-.21-.53-.75-.55-1,.01-.26.31-.45.55-.39.24.21.54.75.55,1-.01.26-.31.45-.55.39M189,466.91c-6.05-3.49-10.81-.81-10.83,6.11,0,2.33.52,4.78,1.45,7.16-.12.02-.23.04-.35.05-3.16.49-4.14,4.67-2.4,10.19.63,2,1.56,3.86,2.66,5.41l-.03,10.15c-2.5.08-4.09,2.4-4,6.25.12,4.76,2.91,9.97,6.62,12.39,1.45.95,4.58,2.82,7.69,4.62s6.2,3.52,7.6,4.21c.73.37,1.43.59,2.07.67-2.64-2.72-4.46-6.85-4.55-10.67-.09-3.7,1.37-5.98,3.69-6.24l.03-10.34c-1.1-1.55-2.02-3.4-2.66-5.41-1.76-5.55-.75-9.75,2.45-10.2.5-.08,1.04-.13,1.6-.16-.13-.34-.27-.69-.42-1.04-.13-.3-.28-.61-.43-.91.36-1.03.56-2.25.57-3.66.02-6.92-4.71-15.08-10.77-18.58"/>
        <path class="uuid-e5d92f79-0301-4b35-8567-73275d95cff6" d="M202.36,523.27l-.02-.02.02.02M222.21,534.73l-.03-.03.03.03M222.81,499.53c-2.33-1.35-4.6-2.06-6.65-2.12-1.29-1.86-2.88-3.35-4.56-4.32-.83-.48-1.68-.83-2.53-1.04-3.1-.79-6.36-1.12-9.04-.97-.56.03-1.1.09-1.6.16-3.2.45-4.21,4.65-2.45,10.2.63,2,1.56,3.86,2.66,5.41l-.03,10.34c-2.32.26-3.79,2.54-3.69,6.24.09,3.82,1.92,7.94,4.55,10.67.64.66,1.34,1.25,2.06,1.72,1.45.95,4.4,2.72,7.34,4.41s5.84,3.31,7.24,4c.95.48,1.84.71,2.64.71.8.92,1.68,1.72,2.63,2.33,1.44.94,4.35,2.68,7.26,4.36s5.8,3.29,7.19,3.98c3.73,1.88,6.54-.1,6.68-4.71.11-3.57-1.32-7.51-3.65-10.46l.02-7.82c.02-5.64.06-20.63-13.14-31.09-.99-.78-1.97-1.45-2.95-2.02"/>
        <path class="uuid-e5d92f79-0301-4b35-8567-73275d95cff6" d="M264.72,536.51c-.19-.49-.41-.98-.65-1.46.2-.08.41-.17.6-.28.17.41.35.82.55,1.21-.18.15-.35.33-.49.52M267.46,518.86c-1.69-.98-6.84-3.95-9.46.52-1,1.74-1.35,1.8-3.26,1.43-2.65-.55-5.81.1-5.82,6.36s3.23,10.42,5.34,12.24l-.02,8.52c-.04,13.79,6.16,21.22,11.36,25.03.97.71,1.92,1.34,2.84,1.87,3.07,1.77,5.84,2.55,8.23,2.33-1.48-2.41-2.41-5.26-2.48-7.97-.09-3.7,1.37-5.98,3.7-6.23l.02-6.54c-.13-.08-.26-.16-.39-.23-.88-.51-1.77-.84-2.63-.95v-3.65s1.01.58,1.01.58c.61.35,1.3.69,2.02.93l.04-12.38c-1.1-1.55-2.03-3.41-2.66-5.41-.82-2.59-1.04-4.88-.71-6.64-.96-3.98-3.66-7.8-7.11-9.8"/>
        <path class="uuid-e5d92f79-0301-4b35-8567-73275d95cff6" d="M281.62,569.03l-.03-.02.03.02M301.46,580.48l-.03-.02.03.02M291.61,527.16c-.37-.21-.74-.39-1.11-.53-4.84-1.86-9.79-2-12.81-1.51-1.68.25-2.75,1.56-3.12,3.55-.32,1.76-.11,4.05.71,6.64.63,2,1.56,3.86,2.66,5.41l-.04,12.38v3.34s-.03,6.54-.03,6.54c-2.33.26-3.79,2.54-3.7,6.23.07,2.71,1,5.57,2.48,7.97,1.12,1.82,2.54,3.38,4.14,4.42,1.45.95,4.4,2.72,7.34,4.41s5.84,3.31,7.24,4c.95.48,1.84.71,2.65.71.8.92,1.68,1.72,2.62,2.33,1.44.94,4.36,2.69,7.26,4.36s5.8,3.29,7.19,3.98c2.15,1.09,4,.88,5.21-.37-.37-.48-.73-.97-1.08-1.47-4.2-5.97-6.85-12.85-7.66-19.91-.95-8.23.67-14.29,4.19-17.45-1.83-5.07-5.06-10.39-10.73-14.89-.98-.78-1.97-1.45-2.94-2.01-1.03-.6-2.05-1.07-3.05-1.42.73-2.22.3-5.58-1.22-9.08-1.51-3.46-3.82-6.28-6.19-7.65"/>
        <path class="uuid-e5d92f79-0301-4b35-8567-73275d95cff6" d="M332.7,581.73c0-.25.03-.51.07-.77.05.3.08.56.08.75h-.15M333.46,563.24c-1.4-.81-2.84-1.51-4.3-2.09-5.65-2.28-10.28-1.76-13.41,1.05-3.52,3.16-5.14,9.21-4.19,17.45.81,7.05,3.46,13.94,7.66,19.91.35.5.71.99,1.08,1.47,3.35,4.36,7.4,7.96,11.81,10.5,1.51.87,3.07,1.63,4.65,2.24,6.09,2.35,11.48,1.43,14.4-2.45l.04-.06c1.54-2.15,1.43-5.8-.17-9.34,1.34-1.07,2.17-3.04,2.18-6.15.02-6.32-2.11-13.13-5.97-19.19-3.54-5.55-8.42-10.23-13.77-13.32"/>
        <path class="uuid-e5d92f79-0301-4b35-8567-73275d95cff6" d="M192.64,552.32c-.37-.21-.74-.39-1.11-.53-4.04-1.56-9.09-2.17-12.87-1.55-3.16.48-4.15,4.67-2.4,10.19.63,2,1.56,3.85,2.66,5.41l-.06,21.15c-.02,6.91,1.5,17.19,14.79,26.61,1.42,1.02,2.8,1.91,4.14,2.68,6.09,3.52,11.25,4.48,15.08,2.79.93-.41,1.91-1.05,2.82-2.02-2.72-5.69-4.3-11.8-4.28-17.58.02-6.21,1.75-10.63,4.76-13.02-3.32-7.81-8.56-13.2-13.32-15.95-.98-.57-1.93-1.03-2.84-1.37.78-2.22.37-5.62-1.18-9.18-1.52-3.46-3.82-6.28-6.2-7.65"/>
        <path class="uuid-e5d92f79-0301-4b35-8567-73275d95cff6" d="M233.93,617.27c-.1-.07-.3-.44-.32-.49-.76-1.47-1.53-4.59-1.17-8.54.09-.89.34-1.18.36-1.21l.09.03c.57.69,1.8,4.4,1.35,9.07-.06.63-.16.99-.23,1.18l-.08-.05M233.6,587.92c-7.37-4.26-13.5-4.58-17.43-1.46-3.02,2.39-4.74,6.8-4.76,13.02-.02,5.78,1.56,11.9,4.28,17.58,3.88,8.11,10.09,15.35,17.36,19.55,4.93,2.84,9.3,3.94,12.83,3.43-.91-2.1-1.42-4.36-1.35-6.45.13-4.2,2.58-6.23,5.92-4.98.06-.04.13-.1.2-.16l4.65-3.64c0-.08,0-.15,0-.23l-3.52-7.29-.1-.22c-.12-.09-.24-.18-.32-.24-3.59-2.79-6.05-7.87-6.03-12.39.01-1.92.47-3.43,1.26-4.42-3.57-4.98-8.03-9.24-12.98-12.1"/>
        <path class="uuid-e5d92f79-0301-4b35-8567-73275d95cff6" d="M262.74,648.86l-.16-.11.16.11M273.18,616.1l-.15-.1.15.1M279.1,614.72c-2.84-1.64-5.82-3.23-7.24-3.82-.75-.32-1.46-.47-2.11-.48-.65-.74-1.36-1.41-2.12-1.96-1.4-1.04-5.29-3.42-8.96-5.54-3.12-1.8-6.08-3.42-7.23-3.86-2.06-.8-3.77-.4-4.86.96-.79.99-1.25,2.5-1.26,4.42-.03,4.53,2.43,9.61,6.03,12.39.08.06.2.15.32.24l.1.22,3.52,7.29.08.17-.08.06-4.65,3.64c-.08.07-.14.12-.2.16-3.33-1.25-5.79.77-5.92,4.98-.06,2.09.44,4.35,1.35,6.45,1.08,2.48,2.73,4.74,4.71,6.26,1.13.87,3.49,2.33,5.97,3.76,2.9,1.67,5.95,3.3,7.35,3.89,1.05.45,2.02.57,2.85.41.85,1.13,1.82,2.12,2.86,2.89,1.41,1.04,5.29,3.42,8.96,5.53,3.12,1.8,6.08,3.42,7.23,3.86,3.58,1.38,6.09-.83,6.12-5.38.02-4.53-2.43-9.61-6.03-12.4-.08-.06-.19-.15-.32-.25l-.1-.21-4.35-8.93,3.98-3.09c.09-.08.17-.14.24-.19,3.32,1.11,5.64-.98,5.71-5.24.07-4.49-2.48-9.76-6.07-12.51-1.14-.88-3.47-2.32-5.9-3.73"/>
        <path class="uuid-e5d92f79-0301-4b35-8567-73275d95cff6" d="M318.76,678.11l-.05-.1.05-.03.05.09-.05.04M315.03,662.85v-.03s0,.03,0,.03M318.44,619.83c-9.86-5.7-18.21-2.53-18.99,7.17-.4,4.51.95,9.65,3.71,14.1,1.94,3.13,4.4,5.62,7.01,7.12.26.15.52.29.78.42-1.43,3.96-1.34,9.34.4,15.3-2.38.99-3.87,3.64-3.88,7.61-.02,7.27,4.91,15.82,11.24,19.47s11.29.82,11.31-6.45c.01-4.09-1.55-8.59-4.04-12.4.23-.7.36-1.52.38-2.43.09-3.43.94-3.79,2.12-3.94,6.53-.79,9.85-5.7,9.88-14.62.03-11.47-8.35-24.66-19.92-31.34"/>
      </g>
    </g>
  </g>
  <g class="uuid-0c63452b-1d1e-43b5-8ffb-100603076a89">
    <g class="uuid-4231bac1-33fe-42b8-9676-26a9d7906f77">
      <g>
        <path class="uuid-0f9502cd-9eac-406f-850a-e3bdda097e94" d="M235.4,419.05c-1.95-1.12-3.88-2.14-5.49-2.85-1.73-.79-1.62,4.28-.19,5.44,2.26,1.79,2.43,3.33,1.47,6.27-1.14,3.46-3.55,10.22-5.72,15.22-.24.55-.57.68-.88.5s-.61-.68-.79-1.4c-1.47-6.06-3.36-14.84-4.65-20.59-.88-3.8-.77-5.31,2.22-4.14,1.31.48,1.39-4.75-.16-5.93-1.84-1.36-4.61-3.12-7.33-4.69-2.23-1.29-4.44-2.46-6.07-3.18-1.73-.79-1.62,4.62-.2,5.78,2.44,1.96,3.03,3.19,2.49,5.76-.78,3.39-2.54,10.47-5.12,15.98-.24.51-.53.69-.8.53s-.54-.66-.75-1.5c-1.71-6.61-4.07-15.73-5.31-21.58-.65-3.12-.29-4.28,1.92-3.48,1.37.44,1.45-5-.16-6.2-1.8-1.34-5.66-3.73-9.37-5.87-3.04-1.75-5.98-3.35-7.61-4.08-1.67-.76-1.57,4.86-.14,6.03,2.92,2.37,3.8,5.28,4.45,7.78,3.37,12.64,6.97,26.18,10.4,38.51,1.24,4.42,1.89,5.21,4.51,6.72s3.99.87,4.78-1.01c2.04-4.85,4.57-11.08,5.53-13.96.18-.55.41-.75.65-.61s.46.58.67,1.3c.59,2.46,2.53,11.34,5.07,20.76.83,2.95,1.36,3.94,4.35,5.66,2.2,1.27,3.58.35,4.42-1.56,3.49-7.99,7.51-17.6,10.46-26.19,1.15-3.32,1.87-3.93,4.13-3.17,1.37.45,1.45-4.79-.16-5.99-1.83-1.36-4.22-2.9-6.6-4.27"/>
        <path class="uuid-0f9502cd-9eac-406f-850a-e3bdda097e94" d="M255.65,430.63c-.06-.03-.11-.06-.17-.08-3.58-1.37-7.82-1.7-10.68-1.23-1.36.19-.21,4.79,1.14,5.56.07.04.15.07.22.09.19.05.36.11.51.2.71.41,1.03,1.32,1.03,3.29l-.07,25.4c-.01,3.56-.43,4.21-2.27,3.42-1.85-.79-1.92,3.76-.07,4.96,1.31.86,4.12,2.54,6.93,4.16s5.61,3.19,6.89,3.82c1.85.93,1.8-3.69-.05-5.03-1.9-1.37-2.2-2.44-2.19-6l.03-9.31c.01-3.9,1.15-5.99,4.19-5.26.61.14,1.2.37,1.75.69,2.67,1.54,4.5,5.11,4.49,10.45l-.03,9.45c-.01,3.56-.25,4.32-2.09,3.52-1.85-.79-1.92,3.76-.08,4.96,1.31.86,4.1,2.52,6.88,4.12s5.55,3.15,6.83,3.79c1.85.93,1.8-3.69-.04-5.03-1.91-1.37-2.26-2.48-2.25-6.03l.02-8.49c.03-11.16-2.46-17.2-8.53-22-.64-.51-1.28-.94-1.9-1.3-3.07-1.77-5.84-1.75-7.59-.13-.39.33-.76.38-1.06.21-.43-.25-.72-.96-.72-1.93l.02-7.32c0-2.05.19-2.85.78-3.6.75-.95-.58-4.61-1.9-5.37"/>
        <path class="uuid-0f9502cd-9eac-406f-850a-e3bdda097e94" d="M294.98,493.61c-1.97-1.14-3.26-3.09-3.26-5.37,0-2.74,1.95-3.37,5.6-1.26.65.37,1.35.83,2.1,1.38,1.37,1,1.91,1.86,1.9,3.43v.48c0,1.85-.73,2.66-3.17,2.35-1.16-.12-2.24-.48-3.17-1.02M298.17,467.26c-8.04-4.64-12.77-4.71-13.85-1.14-.96,3.29.64,6.95,3.38,9.02.36.27.7.5,1.03.69,2.52,1.46,4.17.57,4.65-2.49.3-1.83,1.32-2.33,2.91-1.41.05.03.09.06.14.08,3.63,2.24,4.88,5.15,4.93,9.57v1.23c0,1.24-.41,1.35-1.15.92-.07-.04-.15-.09-.23-.14-1.2-.82-2.36-1.56-3.47-2.2-8.78-5.07-14.65-4.49-14.67,2.01s3.64,12.21,8.99,15.29c.23.13.46.26.69.38,3.7,1.93,6.44,2.28,8.53,1.43.38-.16.7-.16.99,0,.39.22.7.77.98,1.68.89,2.78,1.72,3.94,4.4,5.49,3.64,2.1,6.98,1.63,8.42-.15.77-.97.27-2.71-.94-3.41-.2-.12-.42-.2-.66-.25-.33-.06-.63-.16-.91-.32-.96-.55-1.53-1.77-1.53-3.9l.03-12.05c.02-8.01-5.57-16.18-12.36-20.17-.1-.06-.2-.12-.3-.17"/>
        <path class="uuid-0f9502cd-9eac-406f-850a-e3bdda097e94" d="M327.03,477.48c-2.32-1.34-3.58-1.52-4.35-.18-1.68,2.94-3.23,3.48-6.63,2.82-1.5-.31-1.86.44-1.86,2.42,0,2.26.47,3.15,1.36,3.67l2.8,1.62c.72.41,1.19,1.17,1.18,1.99l-.04,13.48c-.02,7.74,2.06,12.5,6.47,15.73.73.53,1.42.99,2.09,1.37,5.02,2.9,8.35,1.68,10.15-2.6.44-1.05-.18-2.47-1.11-3-.33-.19-.71-.27-1.09-.18-1.59.36-2.97.16-4.09-.49-1.98-1.14-3.13-3.67-3.12-6.83l.03-10.89c0-1.99.43-2.3,2.22-1.26l4.47,2.58c1.55.89,1.97.66,1.98-2.36,0-3.21-.47-3.83-2.08-4.76l-4.88-2.82c-1.25-.72-1.67-1.65-1.67-3.02v-4.17c.02-1.37-.58-2.4-1.83-3.12"/>
        <path class="uuid-0f9502cd-9eac-406f-850a-e3bdda097e94" d="M346.66,476.68c-3.15-1.82-5.25-.36-5.26,3.06,0,2.74,1.36,5.66,3.38,7.44-.24,2.39-.96,3.7-2.7,4.2-1.41.44-.68,2.9.87,3.79.23.13.47.23.73.28,5.61,1.18,8.48-2.78,8.26-9.63-.11-3.83-2.42-7.5-5.29-9.15"/>
        <path class="uuid-0f9502cd-9eac-406f-850a-e3bdda097e94" d="M368.07,507.57c-.62-.36-1.25-.68-1.91-.98-6.56-2.96-10.02-.92-10.04,5.39s4.86,11.92,12.72,18.45c3.39,2.85,4.28,4.74,4.28,6.24,0,2.07-1.37,2.5-3.78,1.11-.86-.5-1.85-1.22-2.96-2.19-2.97-2.61-4.88-5.01-6.84-8.75-.51-1-.9-1.54-1.39-1.82-.42-.24-.9-.28-1.59-.24-1.44.07-1.62.44-1.32,2.33.53,3.25,1.89,6.71,3.32,9.73.58,1.15,1.24,1.84,2.02,2.29.34.2.7.34,1.08.46,1.23.39,2.41.92,3.67,1.65.95.55,1.93,1.21,3.01,2,.95.71,1.96,1.37,2.99,1.97,3.41,1.97,7.01,3.15,9.16,2.44,1.98-.64,3.17-2.21,3-6.15-.34-8.08-6.41-13.64-13.02-18.83-3.27-2.57-4.88-5.08-4.87-6.93,0-2.31,1.43-2.69,4.14-1.12.67.39,1.42.89,2.25,1.52,2.2,1.68,4.28,4.26,5.47,7.14.42,1.03.81,1.59,1.42,1.95.35.2.77.34,1.31.45,1.61.32,1.73-.02,1.56-1.7-.23-2.46-1.12-5.31-2.18-7.64-.73-1.56-1.43-2.35-2.36-2.89-.36-.21-.76-.38-1.21-.55-.52-.19-1.03-.42-1.52-.71-.7-.4-1.38-.91-2.11-1.52-1.43-1.21-2.82-2.23-4.29-3.08"/>
        <path class="uuid-0f9502cd-9eac-406f-850a-e3bdda097e94" d="M193.41,488.93c-.06-.03-.12-.06-.17-.08-3.58-1.38-8.05-1.83-10.92-1.37-1.36.19-.21,4.79,1.14,5.56.07.04.15.07.22.09.19.05.36.11.51.2.71.41,1.03,1.32,1.03,3.29l-.04,13.15c-.01,3.57-.49,4.45-2.57,3.59-1.85-.79-1.92,3.76-.07,4.96,1.31.86,4.3,2.64,7.29,4.36s5.97,3.39,7.25,4.03c1.85.93,1.8-3.69-.04-5.03-2.09-1.55-2.56-2.99-2.55-6.55l.05-17.26c0-2.05.19-2.84.79-3.59.74-.95-.58-4.61-1.9-5.37M188.98,473.43c-3.04-1.75-5.13-.43-5.14,2.86s2.07,7.03,5.11,8.79,5.13.42,5.14-2.87-2.07-7.02-5.11-8.78"/>
        <path class="uuid-0f9502cd-9eac-406f-850a-e3bdda097e94" d="M222.8,506.05c-3.07-1.77-5.84-1.75-7.59-.13-.39.34-.76.39-1.07.21-.43-.25-.72-.96-.72-1.93v-1.37c0-1.39-.72-2.58-1.82-3.21-.3-.17-.63-.3-.98-.39-2.98-.76-6.56-1.11-9.19-.71-1.36.19-.21,4.79,1.14,5.56.07.04.15.07.22.09.19.05.36.11.51.2.71.41,1.03,1.32,1.03,3.29l-.04,13.49c-.01,3.56-.43,4.21-2.27,3.42-1.85-.8-1.92,3.76-.08,4.96,1.31.86,4.13,2.54,6.94,4.16s5.61,3.19,6.89,3.83c1.85.93,1.8-3.69-.05-5.03-1.9-1.37-2.2-2.44-2.19-6l.03-9.31c.01-3.9,1.15-5.99,4.19-5.27.61.14,1.2.37,1.74.69,2.67,1.54,4.51,5.12,4.49,10.46l-.03,9.45c-.01,3.56-.25,4.32-2.09,3.52-1.85-.8-1.92,3.76-.08,4.96,1.31.86,4.1,2.52,6.88,4.13s5.55,3.15,6.83,3.79c1.85.93,1.8-3.69-.04-5.03-1.91-1.37-2.26-2.48-2.25-6.03l.02-8.49c.03-11.17-2.46-17.2-8.53-22-.64-.51-1.28-.94-1.9-1.3"/>
        <path class="uuid-0f9502cd-9eac-406f-850a-e3bdda097e94" d="M267.44,525.38c-2.32-1.34-3.58-1.51-4.36-.18-1.68,2.94-3.23,3.49-6.63,2.82-1.5-.31-1.86.44-1.86,2.42,0,2.26.47,3.15,1.36,3.67l2.8,1.61c.72.42,1.19,1.17,1.19,1.99l-.04,13.49c-.02,7.74,2.06,12.5,6.46,15.73.73.53,1.42.99,2.09,1.37,5.02,2.9,8.35,1.68,10.16-2.6.44-1.06-.18-2.47-1.11-3.01-.34-.19-.71-.27-1.09-.18-1.59.36-2.97.16-4.08-.48-1.98-1.15-3.13-3.68-3.12-6.83l.03-10.89c0-1.98.42-2.29,2.22-1.26l4.46,2.58c1.55.9,1.97.66,1.98-2.36,0-3.22-.46-3.83-2.07-4.76l-4.88-2.82c-1.26-.73-1.67-1.66-1.67-3.02v-4.18c.02-1.36-.58-2.4-1.83-3.12"/>
        <path class="uuid-0f9502cd-9eac-406f-850a-e3bdda097e94" d="M291.59,533.68c-.06-.03-.12-.06-.17-.08-3.58-1.38-7.82-1.7-10.68-1.23-1.36.19-.21,4.79,1.14,5.56.07.04.15.07.22.09.19.05.36.11.51.2.71.41,1.03,1.32,1.03,3.29l-.07,25.41c-.01,3.56-.43,4.21-2.27,3.42-1.85-.8-1.92,3.76-.07,4.96,1.31.86,4.12,2.54,6.93,4.16s5.61,3.19,6.89,3.82c1.85.93,1.8-3.69-.05-5.03-1.9-1.37-2.2-2.44-2.19-6l.03-9.31c.01-3.9,1.15-5.99,4.2-5.26.61.14,1.19.37,1.74.69,2.67,1.54,4.5,5.12,4.49,10.45l-.03,9.45c-.01,3.56-.25,4.32-2.09,3.52-1.85-.8-1.92,3.76-.07,4.96,1.31.86,4.09,2.52,6.87,4.12s5.55,3.15,6.83,3.79c1.85.93,1.8-3.69-.04-5.03-1.91-1.37-2.26-2.48-2.25-6.03l.02-8.49c.03-11.17-2.46-17.2-8.53-22-.64-.51-1.28-.94-1.9-1.3-3.07-1.77-5.84-1.75-7.59-.13-.39.34-.76.39-1.07.21-.43-.25-.72-.96-.72-1.93l.02-7.33c0-2.05.19-2.84.79-3.59.74-.95-.58-4.61-1.9-5.37"/>
        <path class="uuid-0f9502cd-9eac-406f-850a-e3bdda097e94" d="M329,581.15c-1.55-.89-1.97-1.55-1.78-3.23.25-2.53,1.87-4,3.95-3.34.51.16,1,.37,1.47.65,2.63,1.52,4.66,4.76,5.61,8.86.47,2.06-.24,2.26-2.81.78l-6.44-3.72M333.48,569.77c-1.13-.65-2.29-1.22-3.49-1.69-9.48-3.83-14.1,2.77-12.82,13.87,1.25,10.82,7.71,18.87,14.97,23.06,1.22.7,2.46,1.3,3.7,1.78,4.29,1.66,8.29,1.22,10.45-1.65.81-1.13.01-2.87-1.11-3.52-.38-.22-.8-.31-1.2-.22-2.6.61-5.55-.08-8.25-1.64-4.31-2.49-7.99-7.17-8.6-12.2-.18-1.2.24-1.51,1.2-.95l13.7,7.91c3.52,2.03,5.49,1.46,5.5-2.04.03-9.36-6.09-18.1-14.05-22.7"/>
        <path class="uuid-0f9502cd-9eac-406f-850a-e3bdda097e94" d="M197.26,603.65c-2.44-1.41-3.63-3.67-3.62-7.99l.02-8.42c.01-3.63.31-4.41,1.5-5.16.85-.53,2.07-.39,3.34.34,2.84,1.64,5.95,6.25,5.93,13.1-.02,8.77-2.72,10.71-7.19,8.13M192.61,558.84c-.06-.03-.11-.06-.17-.08-3.58-1.38-7.87-1.73-10.74-1.26-1.36.19-.21,4.79,1.13,5.56.07.04.15.07.22.09.19.05.36.11.51.2.71.41,1.04,1.32,1.03,3.29l-.07,23.62c-.02,7.67,2.53,12.09,9.8,17.25,1.19.85,2.34,1.59,3.45,2.23,9.62,5.55,16.06,3.15,16.09-9.13.03-11.43-4.66-19.9-11.03-23.58-3.1-1.79-5.31-1.83-7.4-.5-.4.25-.76.27-1.05.1-.41-.24-.68-.84-.68-1.65l.02-7.19c0-2.05.19-2.84.78-3.59.75-.95-.58-4.61-1.9-5.37"/>
        <path class="uuid-0f9502cd-9eac-406f-850a-e3bdda097e94" d="M234.02,623.86c-.13-.08-.27-.16-.4-.24-4.47-2.86-7.61-10.64-6.81-19.3.42-4.2,2.83-5.64,6.11-3.75.11.07.23.14.34.21,4.95,3.19,7.37,11.73,6.63,19.26-.42,4.44-2.48,5.78-5.87,3.82M233.58,594.44c-8.88-5.13-16.46-3.54-16.5,8.31-.03,10.27,6.44,21.83,15.98,27.33s16.52,2.96,16.55-8.28c.03-10.27-6.51-21.86-16.04-27.37"/>
        <path class="uuid-0f9502cd-9eac-406f-850a-e3bdda097e94" d="M279.14,621.27c-2.57-1.48-5.35-2.98-6.53-3.47-1.72-.72-1.5,3.45-.07,4.42,1.31.89,1.37,1.61,0,2.6l-2.75,1.98-2.14-4.46c-1.42-3.02-1.66-3.91-.89-3.6,1.85.72,1.8-3.01.07-4.28-1.17-.87-4.87-3.1-8.26-5.06-2.81-1.62-5.41-3.05-6.22-3.36-1.79-.69-1.8,3.55-.07,4.9,2.2,1.68,2.62,2.05,4.04,5.07l6.35,13.13-7.66,6.01c-1.44,1.16-1.91,1.23-3.52.5-1.73-.79-1.74,3.38.04,4.76.8.62,2.8,1.84,4.95,3.08,2.63,1.52,5.49,3.06,6.67,3.56,1.73.72,1.5-3.45.07-4.42-1.31-.9-1.36-1.61,0-2.6l3.47-2.52,2.91,5.87c1.42,3.01,1.66,3.9.89,3.6-1.85-.73-1.8,3-.07,4.28,1.18.87,4.91,3.13,8.32,5.09,2.78,1.61,5.36,3.02,6.16,3.33,1.79.69,1.8-3.55.07-4.9-2.2-1.68-2.62-2.07-4.05-5.08l-7.12-14.61,6.94-5.39c1.44-1.16,1.92-1.22,3.35-.6,1.72.72,1.74-3.39-.05-4.76-.81-.62-2.79-1.84-4.91-3.07"/>
        <path class="uuid-0f9502cd-9eac-406f-850a-e3bdda097e94" d="M318.78,671.61c-3.16-1.82-5.61-.43-5.62,3.2s2.43,7.85,5.59,9.68,5.61.42,5.62-3.21-2.43-7.85-5.58-9.67M318.42,626.35c-7.39-4.26-12.83-1.65-13.32,4.51-.39,4.33,1.91,8.99,5.1,10.83.37.21.75.39,1.14.52,3.69,1.24,5.08-2.35,3.36-6.56-.41-1-.47-1.44-.23-2.12.48-1.16,1.8-1.57,3.94-.33,2.68,1.55,4.82,5.12,4.81,9.15-.01,4.52-1.21,6.16-3.84,7.66-3.71,2.11-4.86,7.76-2.61,14.95.41,1.31,1.2,2.28,1.96,2.72.99.57,1.94.24,1.98-1.4.14-4.86,1.52-7.35,4.86-7.76,5.02-.6,7.12-4.25,7.14-10.62.02-7.81-5.98-16.76-14.26-21.54"/>
      </g>
    </g>
  </g>
  <g class="uuid-0c63452b-1d1e-43b5-8ffb-100603076a89">
    <g class="uuid-9c7f4581-7814-4f9a-9ccd-03326d3b4f61">
      <g>
        <path class="uuid-35ab3621-5966-4b3c-8954-08946dd018ff" d="M629.03,527.48c3.48-6.8,9.02-13.09,15.16-16.64,11.58-6.68,20-3.21,20.03,8.27.03,8.92-3.26,17.66-9.76,25.97-1.17,1.49-2.01,2.83-2.09,6.36-.02.94-.14,1.9-.37,2.87,2.51.91,4.09,3.6,4.1,7.69.02,7.26-4.92,15.82-11.24,19.47-6.33,3.65-11.29.82-11.31-6.45-.01-3.98,1.45-8.33,3.82-12.05-1.78-3.93-1.89-9.19-.49-14.79-.26.17-.52.33-.78.48-2.01,1.16-3.94,1.64-5.62,1.39-1.63,4.49-4.13,8.9-7.49,13.2-1.17,1.49-2.01,2.83-2.09,6.36-.02.94-.14,1.9-.37,2.87,2.51.91,4.09,3.6,4.1,7.69.02,7.26-4.92,15.82-11.24,19.47s-11.29.82-11.31-6.45c-.01-3.98,1.45-8.33,3.82-12.05-1.78-3.93-1.89-9.19-.49-14.79-.26.17-.52.33-.78.48-2.6,1.5-5.07,1.86-7.02.98-2.78-1.25-4.16-4.82-3.78-9.77.72-10.55,9.02-23.33,18.89-29.02,6.95-4.01,12.76-4.36,16.3-1.52M674.49,471.3l-91.14,52.62c-1.54.89-2.83,3.13-2.83,4.89l.3,104.73c0,1.76,1.31,2.51,2.84,1.62l91.14-52.62c1.54-.89,2.83-3.13,2.83-4.89l-.3-104.73c0-1.77-1.31-2.51-2.84-1.62"/>
        <path class="uuid-0f9502cd-9eac-406f-850a-e3bdda097e94" d="M583.67,635.16c-1.54.89-2.84.14-2.84-1.62l-.3-104.73c0-1.77,1.29-4.01,2.83-4.89l91.14-52.62c1.54-.89,2.84-.15,2.84,1.62l.3,104.73c0,1.76-1.29,4.01-2.83,4.89l-91.14,52.62M674.46,458.25l-91.14,52.62c-7.82,4.52-14.17,15.51-14.14,24.49l.3,104.73c.03,8.99,6.41,12.63,14.23,8.11l91.14-52.62c7.82-4.52,14.17-15.51,14.14-24.49l-.3-104.73c-.03-8.99-6.41-12.63-14.23-8.11"/>
        <path class="uuid-0f9502cd-9eac-406f-850a-e3bdda097e94" d="M613.39,593.1c-3.16,1.82-5.61.42-5.62-3.2s2.42-7.84,5.58-9.67,5.61-.43,5.62,3.2-2.42,7.84-5.58,9.67M609.57,575.82v-.03s0,.03,0,.03M612.73,529c-9.86,5.7-18.17,18.48-18.89,29.02-.38,4.96,1,8.52,3.78,9.77,1.95.88,4.42.52,7.02-.98.26-.15.52-.31.78-.48-1.4,5.59-1.29,10.85.49,14.79-2.37,3.73-3.83,8.08-3.82,12.05.02,7.26,4.98,10.1,11.31,6.45s11.26-12.2,11.24-19.47c-.01-4.09-1.59-6.78-4.1-7.69.23-.97.35-1.93.37-2.87.07-3.53.91-4.87,2.09-6.36,3.36-4.3,5.86-8.71,7.49-13.2-.49-.07-.96-.21-1.4-.41-1.16-.53-2.08-1.46-2.73-2.72-.99,4.13-3.01,8.22-6.32,12.45-3.33,4.25-4.7,8.33-4.8,13.33-.03,1.69-.98,3.11-1.97,3.69-.76.44-1.54.38-1.96-.46-2.28-4.58-1.17-11.53,2.51-17.91,2.62-4.53,3.8-7.54,3.78-12.06-.01-4.04-2.16-5.13-4.84-3.58-2.15,1.24-3.45,3.16-3.93,4.88-.23.96-.18,1.34.25,1.84,1.73,2.23.38,7.39-3.32,10.42-.39.32-.77.58-1.14.8-3.18,1.84-5.5-.16-5.14-4.92.46-6.71,5.86-15.59,13.25-19.86,6.16-3.56,11.07-3.36,13.2.18.64-2.73,1.7-5.52,3.08-8.23-3.54-2.84-9.36-2.49-16.3,1.52"/>
        <path class="uuid-0f9502cd-9eac-406f-850a-e3bdda097e94" d="M644.86,574.94c-3.16,1.82-5.61.42-5.62-3.2s2.42-7.84,5.58-9.67,5.61-.43,5.62,3.2-2.43,7.85-5.58,9.67M641.03,557.65v-.03s0,.03,0,.03M636.1,542.13c-3.18,1.84-5.5-.16-5.14-4.92.46-6.71,5.86-15.59,13.25-19.86,8.28-4.78,14.32-2.78,14.34,5.02.02,6.37-2.06,12.44-7.05,18.82-3.33,4.25-4.69,8.33-4.79,13.33-.03,1.69-.98,3.11-1.97,3.69-.76.44-1.54.38-1.96-.46-2.28-4.58-1.17-11.53,2.51-17.91,2.61-4.53,3.8-7.54,3.78-12.06-.01-4.04-2.16-5.13-4.84-3.58-2.15,1.24-3.45,3.16-3.93,4.88-.23.96-.18,1.34.24,1.84,1.74,2.22.38,7.39-3.31,10.41-.39.32-.77.58-1.14.8M644.2,510.84c-6.15,3.55-11.68,9.85-15.16,16.64-1.39,2.71-2.45,5.5-3.08,8.23.73,1.22,1.13,2.84,1.14,4.84,0,2.15-.23,4.26-.73,6.36.65,1.27,1.57,2.2,2.73,2.72.44.2.91.33,1.4.41,1.68.25,3.61-.23,5.62-1.39.26-.15.52-.31.78-.48-1.4,5.59-1.29,10.85.49,14.79-2.37,3.73-3.83,8.08-3.82,12.05.02,7.26,4.98,10.1,11.31,6.45,6.32-3.65,11.26-12.2,11.24-19.47-.01-4.09-1.59-6.78-4.1-7.69.23-.97.35-1.93.37-2.87.07-3.53.91-4.87,2.09-6.36,6.5-8.31,9.79-17.05,9.76-25.97-.03-11.47-8.46-14.95-20.03-8.27"/>
        <path class="uuid-9525d219-2020-4c58-8f31-a85d5b258384" d="M613.36,580.23c-3.16,1.82-5.59,6.04-5.58,9.67s2.46,5.03,5.62,3.2,5.59-6.04,5.58-9.67-2.46-5.03-5.62-3.2M612.75,535.52c-7.39,4.26-12.79,13.15-13.25,19.86-.36,4.76,1.95,6.76,5.14,4.92.37-.21.75-.48,1.14-.8,3.69-3.02,5.05-8.19,3.32-10.42-.42-.51-.48-.88-.25-1.84.47-1.71,1.78-3.64,3.93-4.88,2.68-1.55,4.83-.46,4.84,3.58.01,4.52-1.17,7.53-3.78,12.06-3.68,6.38-4.8,13.33-2.51,17.91.42.83,1.2.89,1.96.46.99-.57,1.94-2,1.97-3.69.1-5,1.46-9.08,4.8-13.33,3.31-4.23,5.33-8.32,6.32-12.45.5-2.1.73-4.22.73-6.36,0-2-.41-3.62-1.14-4.84-2.13-3.54-7.04-3.74-13.2-.18"/>
        <path class="uuid-9525d219-2020-4c58-8f31-a85d5b258384" d="M644.82,562.07c-3.16,1.82-5.59,6.04-5.58,9.67s2.46,5.03,5.62,3.2,5.59-6.04,5.58-9.67-2.46-5.02-5.62-3.2M644.21,517.36c-7.39,4.26-12.79,13.15-13.25,19.86-.36,4.76,1.95,6.76,5.14,4.92.37-.21.75-.48,1.14-.8,3.69-3.02,5.05-8.19,3.31-10.41-.42-.51-.48-.89-.24-1.84.47-1.71,1.78-3.64,3.93-4.88,2.68-1.55,4.83-.46,4.84,3.58.01,4.52-1.17,7.53-3.78,12.06-3.68,6.38-4.8,13.33-2.51,17.91.42.83,1.2.89,1.96.46.99-.57,1.94-2,1.97-3.69.1-5,1.46-9.08,4.79-13.33,5-6.38,7.07-12.45,7.05-18.82-.02-7.81-6.06-9.8-14.34-5.02"/>
      </g>
    </g>
  </g>
</svg>